<?xml version="1.0" encoding="utf-8"?>
<!-- Generator: Adobe Illustrator 24.0.3, SVG Export Plug-In . SVG Version: 6.00 Build 0)  -->
<svg version="1.1" id="Layer_1" xmlns="http://www.w3.org/2000/svg" xmlns:xlink="http://www.w3.org/1999/xlink" x="0px" y="0px"
	 viewBox="0 0 734.2 197.4" style="enable-background:new 0 0 734.2 197.4;" xml:space="preserve">
<style type="text/css">
	.st0{fill:#A1C7E3;}
	.st1{fill:#455560;}
</style>
<g>
	<path class="st0" d="M529.5,63.7c-8,0-14.9,1.1-20.6,3.2c-1.4,0.5-3,1.3-4.8,2.2l4.2-25.5h74.9V3.6h-109l-13.9,109.7l40.3,1.9
		l1.4-2.7c2.3-4.4,5.6-7.3,9.9-8.8c2.7-0.9,5.9-1.4,9.7-1.4c7.5,0,12.9,2.4,16.3,7.5c3.8,5.6,5.7,12.6,5.7,20.8c0,8.3-2,15.3-6,20.6
		c-3.7,5-9,7.4-16.3,7.4c-6.4,0-10.9-1.6-14-4.8c-3.3-3.5-5.7-8.8-6.9-15.5l-0.7-3.9h-44.8l0.4,5.2c1.3,18.3,8.2,32.7,20.2,42.8
		c11.9,10,27.3,15,45.7,15c22.9,0,40.4-7.3,52-21.6c11.4-14,17.2-30.2,17.2-48c0-20.6-6.2-36.7-18.4-47.7
		C560,69.2,545.7,63.7,529.5,63.7z"/>
	<path class="st0" d="M719.6,26.9L719.6,26.9C709.4,9,691.6,0,666.7,0s-42.7,9-52.9,26.9c-9.7,17-14.6,41.1-14.6,71.8
		c0,30.7,4.9,54.8,14.6,71.7c10.2,17.7,28,26.7,52.9,26.7c24.9,0,42.7-9,52.9-26.7c9.7-16.9,14.6-41,14.6-71.7
		C734.2,68,729.3,43.8,719.6,26.9z M650.2,51.5c2.8-8.5,8-12.5,16.5-12.5c8.5,0,13.6,4,16.3,12.4c3.1,10,4.7,25.9,4.7,47.2
		c0,20.3-1.6,36-4.8,46.6c-2.7,9-7.8,13.2-16.3,13.2c-8.4,0-13.7-4.2-16.5-13.2c-3.3-10.6-4.9-26.2-4.9-46.5
		C645.3,77.4,647,61.5,650.2,51.5z"/>
</g>
<g>
	<path class="st1" d="M54.6,148h10.2c36-0.8,50.3-14.8,50.3-51.3c0-33.2-17.9-49.3-50.3-49.3H54.6V148z M0,6.5h73.2
		c55.9,0,89.4,34,89.4,90.4c0,59.8-34,92-89.4,92H0V6.5z"/>
	<rect x="369.7" y="6.5" class="st1" width="54.6" height="182.4"/>
	<path class="st1" d="M235.1,120.9h41.4l-20.2-63.9h-0.5L235.1,120.9z M227.4,6.5h58.3l68.2,182.4h-55l-11.2-32.7h-63.6l-11.5,32.7
		h-53.4L227.4,6.5z"/>
</g>
</svg>
